<?xml version="1.0" encoding="UTF-8"?>
<svg version="1.1" xmlns="http://www.w3.org/2000/svg" width="372" height="146">
<path d="M0 0 C122.76 0 245.52 0 372 0 C372 48.18 372 96.36 372 146 C249.24 146 126.48 146 0 146 C0 97.82 0 49.64 0 0 Z " fill="#010101" transform="translate(0,0)"/>
<path d="M0 0 C12.75882551 4.4840015 22.15352479 17.21456295 31.03808594 26.87646484 C34.58260108 30.71297464 38.16784951 34.51116622 41.75 38.3125 C42.44174316 39.04791016 43.13348633 39.78332031 43.84619141 40.54101562 C47.38566449 44.30671457 47.38566449 44.30671457 51 48 C51 36.78 51 25.56 51 14 C48.525 13.01 48.525 13.01 46 12 C46 11.67 46 11.34 46 11 C53.92 11 61.84 11 70 11 C68.68 11.66 67.36 12.32 66 13 C63.57207573 15.42792427 63.73073804 16.08340351 63.66186523 19.41455078 C63.63942245 20.32955353 63.61697968 21.24455627 63.59385681 22.18728638 C63.58222 23.179935 63.57058319 24.17258362 63.55859375 25.1953125 C63.54482193 26.21672333 63.53105011 27.23813416 63.51686096 28.29049683 C63.49355038 30.45760659 63.47630469 32.62478866 63.46459961 34.79199219 C63.43776953 38.0918503 63.36291826 41.38845523 63.28710938 44.6875 C63.27044355 46.79424928 63.25668006 48.9010239 63.24609375 51.0078125 C63.21623886 51.98831573 63.18638397 52.96881897 63.15562439 53.97903442 C63.19712963 60.51937169 64.65070168 63.79126546 69.27400208 68.43884277 C76.01064865 74.53210878 81.94348933 77.01817268 91 78 C86.24200457 81.17199695 81.55720958 80.71263847 76 80 C63.45626142 75.99880747 52.92118139 61.43283032 44.56518555 51.77685547 C42.63472873 49.58533079 40.59576057 47.53320056 38.5 45.5 C34.99421755 42.04207806 31.7004012 38.47438402 28.5078125 34.7265625 C27.0668125 33.0765055 25.5559356 31.5408032 24 30 C23.95062721 34.66307014 23.91429373 39.32598873 23.89013672 43.98925781 C23.88006812 45.57619883 23.86641233 47.16312125 23.84912109 48.75 C23.82490999 51.02869247 23.81352578 53.30714006 23.8046875 55.5859375 C23.79436493 56.29744965 23.78404236 57.00896179 23.77340698 57.74203491 C23.77300578 59.49631665 23.87797791 61.24996709 24 63 C26.10540926 65.31622777 26.10540926 65.31622777 30 67 C21.75 67 13.5 67 5 67 C9 65 9 65 11 65 C11.20358321 58.16865217 11.34324452 51.33809167 11.43945312 44.50439453 C11.47957538 42.18215708 11.53408866 39.86012036 11.60351562 37.53857422 C11.70106183 34.19187854 11.74603968 30.84786249 11.78125 27.5 C11.82254028 26.4694751 11.86383057 25.4389502 11.90637207 24.37719727 C11.90989413 18.66253017 11.25888919 15.5973462 7.19726562 11.43359375 C0.67963577 5.66543614 -5.34944392 3.40048871 -14 3 C-9.52351203 -0.85162352 -5.69879631 -0.86702514 0 0 Z " fill="#F9F9F9" transform="translate(39,29)"/>
<path d="M0 0 C0 4.29 0 8.58 0 13 C-1.59550149 10.87266468 -3.17578379 8.7295634 -4.625 6.5 C-9.10779956 1.78126362 -14.60694558 -0.20441069 -21.0625 -0.5625 C-27.15944152 -0.28794829 -31.19449914 2.33727273 -35.53515625 6.45703125 C-41.49941813 13.0472798 -41.52009613 20.68041312 -41.31640625 29.0703125 C-40.78478476 35.6729201 -38.79028451 39.83281349 -34.625 44.875 C-29.65536336 48.89803919 -25.61478908 50.56777664 -19.25390625 50.36328125 C-15.49463878 49.75736812 -13.09671989 48.19350992 -10 46 C-8.49065783 42.98131565 -8.73419919 39.87191602 -8.6875 36.5625 C-8.65849609 35.88123047 -8.62949219 35.19996094 -8.59960938 34.49804688 C-8.52663396 32.24563029 -8.52663396 32.24563029 -9 29 C-10.32 28.01 -11.64 27.02 -13 26 C-5.74 26 1.52 26 9 26 C7.68 26.99 6.36 27.98 5 29 C4.37361528 31.0404118 4.37361528 31.0404118 4.43359375 33.31640625 C4.42030029 34.15880859 4.40700684 35.00121094 4.39331055 35.86914062 C4.40789307 36.75794922 4.42247559 37.64675781 4.4375 38.5625 C4.44628174 39.46548828 4.45506348 40.36847656 4.46411133 41.29882812 C4.71959814 49.64925244 6.51441718 55.51441718 12.5 61.5 C18.23387296 64.94032378 23.41633771 65.51421521 30 66 C24.87009318 69.41993788 19.04039109 69.70601974 13 69 C3.67777953 66.21544064 -1.72432485 59.91351272 -7 52 C-7.98613281 52.32097656 -8.97226563 52.64195313 -9.98828125 52.97265625 C-20.10957658 55.84302611 -31.20074767 54.99331013 -40.61328125 50.421875 C-43.63290514 48.62295013 -45.79521491 46.73927845 -48 44 C-48.43828125 43.51402344 -48.8765625 43.02804688 -49.328125 42.52734375 C-55.23144932 35.89458568 -55.60849284 29.52415784 -55.375 21.02734375 C-54.91617511 14.01223898 -51.93985168 8.55498435 -46.9375 3.6875 C-33.96624477 -6.08269439 -14.64364778 -7.32182389 0 0 Z " fill="#F6F6F6" transform="translate(230,43)"/>
<path d="M0 0 C4.90180174 2.78985524 8.51285559 5.64026478 11.5 10.4375 C11.90992188 11.09363281 12.31984375 11.74976563 12.7421875 12.42578125 C16.46310552 19.44420248 16.8581869 27.38626558 14.8046875 35.0234375 C13.87204624 37.31977271 12.81246989 39.33672272 11.5 41.4375 C11.11070312 42.06269531 10.72140625 42.68789062 10.3203125 43.33203125 C5.782456 49.49438668 -1.58416359 53.09681734 -8.86328125 55.08203125 C-20.60574564 56.66508941 -32.31743785 56.53875153 -42.25 49.484375 C-49.23449272 43.67750024 -52.99775131 38.69508208 -53.8671875 29.59375 C-54.27065001 20.90253755 -53.59097958 14.31101562 -47.88671875 7.515625 C-44.51163992 3.89358918 -41.22246106 1.15475857 -36.5 -0.5625 C-35.51 -0.2325 -34.52 0.0975 -33.5 0.4375 C-33.84933594 1.01757812 -34.19867188 1.59765625 -34.55859375 2.1953125 C-35.01363281 2.97648437 -35.46867187 3.75765625 -35.9375 4.5625 C-36.38996094 5.32820313 -36.84242188 6.09390625 -37.30859375 6.8828125 C-41.09716622 15.0065056 -40.87504231 27.76545048 -38.78125 36.40234375 C-36.6452233 41.44095513 -33.4052125 46.52910985 -28.76953125 49.57421875 C-23.2450703 51.67560579 -15.77754149 51.45315356 -10.16796875 49.71484375 C-4.13296643 46.46724991 -0.96741883 41.53564252 0.95703125 35.15625 C2.78273298 26.01460682 2.51412799 16.49856122 -2.5 8.4375 C-5.54943341 4.66237864 -8.67644949 2.27240475 -13.5 1.375 C-18.38746579 1.09978348 -22.241191 2.69452479 -26.125 5.69140625 C-28.00111146 8.0738546 -28.23202349 10.14688434 -28.6875 13.125 C-28.92533203 14.61580078 -28.92533203 14.61580078 -29.16796875 16.13671875 C-29.33232422 17.27560547 -29.33232422 17.27560547 -29.5 18.4375 C-31.5 16.4375 -31.5 16.4375 -31.875 13.3125 C-31.27056509 7.06667259 -29.37605874 3.06885542 -24.625 -1.0625 C-16.83428368 -4.76600968 -7.56672141 -3.51480335 0 0 Z " fill="#F7F7F7" transform="translate(301.5,41.5625)"/>
<path d="M0 0 C0 4.29 0 8.58 0 13 C-2 10 -2 10 -3.0625 7.875 C-5.63791717 5.0000729 -5.63791717 5.0000729 -14 5 C-14 12.59 -14 20.18 -14 28 C-10.3803125 27.8453125 -10.3803125 27.8453125 -6.6875 27.6875 C-5.93170654 27.66260498 -5.17591309 27.63770996 -4.3972168 27.61206055 C-1.58958988 27.45752262 0.51538665 27.33769899 2.85546875 25.70703125 C4.26189563 23.68729154 4.26189563 23.68729154 6 20 C6 25.94 6 31.88 6 38 C4 35 4 35 3 33 C-0.46712111 31.84429296 -3.5414956 31.67164707 -7.1875 31.4375 C-10.5596875 31.2209375 -10.5596875 31.2209375 -14 31 C-14 38.26 -14 45.52 -14 53 C-8.9571875 52.8453125 -8.9571875 52.8453125 -3.8125 52.6875 C-2.23625854 52.65015747 -2.23625854 52.65015747 -0.62817383 52.61206055 C6.1999017 52.37932778 6.1999017 52.37932778 12 49 C13.62000999 47.00475304 13.62000999 47.00475304 14.8125 44.8125 C15.44091797 43.73935547 15.44091797 43.73935547 16.08203125 42.64453125 C16.38496094 42.10183594 16.68789062 41.55914062 17 41 C18.52949845 44.05899689 17.40731449 46.29328671 16.625 49.5625 C16.34914062 50.73941406 16.07328125 51.91632813 15.7890625 53.12890625 C15 56 15 56 14 57 C12.55710213 57.09295815 11.10970215 57.11746513 9.66381836 57.11352539 C8.28249977 57.11341209 8.28249977 57.11341209 6.87327576 57.11329651 C5.87224319 57.10813522 4.87121063 57.10297394 3.83984375 57.09765625 C2.82024063 57.0962413 1.80063751 57.09482635 0.75013733 57.09336853 C-2.52077107 57.08775097 -5.79161213 57.0751955 -9.0625 57.0625 C-11.27408756 57.05748726 -13.48567618 57.05292396 -15.69726562 57.04882812 C-21.13153357 57.03777584 -26.56576197 57.02102063 -32 57 C-31.18869629 56.56171875 -30.37739258 56.1234375 -29.54150391 55.671875 C-25.66186954 51.59322769 -26.28181735 47.6867867 -26.3359375 42.25 C-26.33115387 41.19973633 -26.32637024 40.14947266 -26.32144165 39.06738281 C-26.3180413 36.84829205 -26.32725307 34.62915128 -26.34814453 32.41015625 C-26.3749064 29.01188549 -26.34839943 25.61691792 -26.31640625 22.21875 C-26.31971032 20.0624927 -26.3261165 17.90623746 -26.3359375 15.75 C-26.32581635 14.73325195 -26.31569519 13.71650391 -26.30526733 12.66894531 C-26.29609479 6.90200475 -26.29609479 6.90200475 -29.54150391 2.328125 C-30.35280762 1.88984375 -31.16411133 1.4515625 -32 1 C-27.41670862 0.83216619 -22.83336053 0.6659338 -18.25 0.5 C-16.94804687 0.45230469 -15.64609375 0.40460937 -14.3046875 0.35546875 C-12.42910156 0.28779297 -12.42910156 0.28779297 -10.515625 0.21875 C-9.36352539 0.17685547 -8.21142578 0.13496094 -7.02441406 0.09179688 C-4.68382066 0.02075529 -2.34167128 0 0 0 Z " fill="#F5F5F5" transform="translate(151,39)"/>
<path d="M0 0 C2.9375 0.875 2.9375 0.875 4.9375 3.875 C4.75 6.9375 4.75 6.9375 3.9375 9.875 C0.9375 11.875 0.9375 11.875 -1.625 11.625 C-4.0625 10.875 -4.0625 10.875 -6.0625 8.875 C-6.39552312 5.7445827 -6.53921956 3.69601702 -4.9375 0.9375 C-3.0625 -0.125 -3.0625 -0.125 0 0 Z " fill="#C13636" transform="translate(330.0625,85.125)"/>
<path d="M0 0 C0.515625 0.2475 1.03125 0.495 1.5625 0.75 C0.5725 1.08 -0.4175 1.41 -1.4375 1.75 C-0.7775 2.41 -0.1175 3.07 0.5625 3.75 C-1.16276042 4.43359375 -2.88802083 5.1171875 -4.61328125 5.80078125 C-6.75089504 6.91307279 -7.96404444 7.83108112 -9.4375 9.75 C-10.22912493 12.47486722 -10.22912493 12.47486722 -10.625 15.4375 C-10.78355469 16.43136719 -10.94210937 17.42523438 -11.10546875 18.44921875 C-11.21503906 19.20847656 -11.32460938 19.96773437 -11.4375 20.75 C-13.4375 18.75 -13.4375 18.75 -13.8125 15.625 C-13.29927395 10.32166417 -11.92622337 5.86339386 -7.75390625 2.3203125 C-5.1082666 0.67034369 -3.14510866 -0.32257525 0 0 Z " fill="#DBDBDB" transform="translate(283.4375,39.25)"/>
</svg>
